<svg xmlns="http://www.w3.org/2000/svg" width="1365.33" height="1365.33">
    <path
        d="M78.76 775.33v-510h1210.66v1020H78.76zM89.42 249.3c4.77-1.36 140.37-36.78 301.34-78.7l292.66-76.22 8.67 2.04c9.76 2.31 587.92 154.05 590 154.86.73.28-269.27.5-600 .5-588.9 0-601.15-.04-592.67-2.48z"
        fill="#cfcfcf" />
    <path
        d="M78.76 775.33v-510h1210.66v1020H78.76zm6-524.1c.73-.3 135.95-35.6 300.49-78.46L684.4 94.85l296.85 77.95c163.26 42.86 297.44 78.17 298.17 78.46.74.3-268.06.53-597.33.53-329.27 0-598.07-.25-597.33-.55z"
        fill="#a9a9a9" />
    <path d="M78.76 1102.67V920h416v-21.33h-416V284h1210.66v614.67H884.1V920h405.33v365.33H78.76z" fill="#f2d70b" />
    <path
        d="M79.06 1257l.36-28.33 4.67-2.16c2.57-1.2 164.8-60.6 360.53-132L800.5 964.67l-152.2-.34-152.2-.34-207.42 66C174.6 1066.3 80.7 1096 80.01 1096c-.77 0-1.25-33.97-1.25-88v-88h416v-21.33h-416V284h1210.66v614.67H884.1V920h405.33v365.33H78.7zm726.36-451.67V712H570.76V898.67h234.66zM220.1 722v-72.67h-65.33v145.34h65.33zm213.33 0v-72.67H368.1v145.34h65.33zm581.34 0v-72.67h-65.34v145.34h65.34zm213.33 0v-72.67h-65.33v145.34h65.33zm-1008-281.33V368h-65.33V513.33h65.33zm213.33 0V368H368.1V513.33h65.33zm284 0V368H652.1V513.33h65.33zm297.34 0V368h-65.34V513.33h65.34zm213.33 0V368h-65.33V513.33h65.33z"
        fill="#a5af32" />
    <path
        d="M78.76 1257.5c0-20.71.42-28.16 1.66-29.1.92-.69 163.48-60.31 361.25-132.5l359.58-131.23-153.04-.34-153.04-.34-207.44 66C173.63 1066.3 79.95 1096 79.53 1096c-.43 0-.77-39.6-.77-88v-88h416v-21.33h-416V284h1210.66v614.67H884.1V920h405.33v365.33H78.76zm726.66-452.17V712H570.76V898.67h234.66zM220.1 722v-72.67h-65.33v145.34h65.33zm213.33 0v-72.67H368.1v145.34h65.33zm581.34 0v-72.67h-65.34v145.34h65.34zm213.33 0v-72.67h-65.33v145.34h65.33zm-1008-281.33V368h-65.33V513.33h65.33zm213.33 0V368H368.1V513.33h65.33zm284 0V368H652.1V513.33h65.33zm297.34 0V368h-65.34V513.33h65.34zm213.33 0V368h-65.33V513.33h65.33z"
        fill="#818181" />
    <path
        d="M78.76 1257.5c0-20.71.42-28.16 1.66-29.1.92-.69 163.97-60.48 362.34-132.86l360.66-131.6 40.34.03 40.33.03v-44h405.33v365.33H78.76zm0-249.36V920h416.06l-.36 22.17-.37 22.17-204.67 65.17a85105.8 85105.8 0 01-207.66 65.97l-3 .8zm0-416.8V284h1210.66v614.67h-460V712h14.67v-42.67h40V624H494.76v45.33h40v41.34h12v188h-468zM220.09 722v-72.67h-65.33v145.34h65.33zm213.33 0v-72.67H368.1v145.34h65.33zm581.34 0v-72.67h-65.34v145.34h65.34zm213.33 0v-72.67h-65.33v145.34h65.33zm-1008-281.33V368h-65.33V513.33h65.33zm213.33 0V368H368.1V513.33h65.33zm284 0V368H652.1V513.33h65.33zm297.34 0V368h-65.34V513.33h65.34zm213.33 0V368h-65.33V513.33h65.33z"
        fill="#859e42" />
    <path
        d="M78.76 1257.54v-27.79l4.33-2.2c2.38-1.23 165.47-61.02 362.42-132.89L803.61 964h80.48v-44h405.33v365.33H78.76zm0-249.38V920h416v43.9l-27 8.65a373346.13 373346.13 0 01-386.67 123.08c-2.2.64-2.33-4.15-2.33-87.47zm0-416.83V284h1210.66v614.67h-460V712h14.67v-42.67h40V624H494.76v45.33h40v41.34h12v188h-468zM220.09 722v-72.67h-65.33v145.34h65.33zm213.33 0v-72.67H368.1v145.34h65.33zm581.34 0v-72.67h-65.34v145.34h65.34zm213.33 0v-72.67h-65.33v145.34h65.33zm-1008-281.33V368h-65.33V513.33h65.33zm213.33 0V368H368.1V513.33h65.33zm284 0V368H652.1V513.33h65.33zm297.34 0V368h-65.34V513.33h65.34zm213.33 0V368h-65.33V513.33h65.33z"
        fill="#648d52" />
    <path
        d="M78.76 1257.56c0-27.46.03-27.8 3-29.33 1.65-.85 164.89-60.65 362.76-132.89L804.28 964h79.81v-44h405.33v365.33H78.76zm0-249.42V920h416v43.9l-6.34 1.9c-8.05 2.4-405.65 128.95-407.95 129.83-1.38.53-1.71-16.27-1.71-87.49zm0-416.8V284h1210.66v614.67h-460V712h14.67v-42.67h40V624H494.76v45.33h40v41.34h12v188h-468zM220.09 722v-72.67h-65.33v145.34h65.33zm213.33 0v-72.67H368.1v145.34h65.33zm581.34 0v-72.67h-65.34v145.34h65.34zm213.33 0v-72.67h-65.33v145.34h65.33zm-1008-281.33V368h-65.33V513.33h65.33zm213.33 0V368H368.1V513.33h65.33zm284 0V368H652.1V513.33h65.33zm297.34 0V368h-65.34V513.33h65.34zm213.33 0V368h-65.33V513.33h65.33z"
        fill="#276d71" />
    <path
        d="M78.76 1257.65v-27.69l5.15-2.23c2.84-1.23 166.26-61.07 363.17-132.98L805.1 964h79v-44h405.32v365.33H78.76zm0-250.32V920h416v43.46l-206.34 65.63c-113.48 36.09-207.08 65.6-208 65.6-1.31-.02-1.66-18.39-1.66-87.36zm0-416V284h1210.66v614.67h-460V712h14.67v-42.67h40V624H494.76v45.33h40v41.34h12v188h-468zM220.09 722v-72.67h-65.33v145.34h65.33zm213.33 0v-72.67H368.1v145.34h65.33zm581.34 0v-72.67h-65.34v145.34h65.34zm213.33 0v-72.67h-65.33v145.34h65.33zm-1008-281.33V368h-65.33V513.33h65.33zm213.33 0V368H368.1V513.33h65.33zm284 0V368H652.1V513.33h65.33zm297.34 0V368h-65.34V513.33h65.34zm213.33 0V368h-65.33V513.33h65.33z"
        fill="#005885" />
</svg>