<?xml version="1.0" encoding="UTF-8" standalone="no"?>
<!-- Created with Inkscape (http://www.inkscape.org/) -->

<svg xmlns:dc="http://purl.org/dc/elements/1.1/" xmlns:cc="http://creativecommons.org/ns#"
   xmlns:rdf="http://www.w3.org/1999/02/22-rdf-syntax-ns#" xmlns:svg="http://www.w3.org/2000/svg"
   xmlns="http://www.w3.org/2000/svg" xmlns:sodipodi="http://sodipodi.sourceforge.net/DTD/sodipodi-0.dtd"
   xmlns:inkscape="http://www.inkscape.org/namespaces/inkscape" version="1.1" id="svg3749" width="1365.3333"
   height="1365.3333" viewBox="0 0 1365.3333 1365.3333" sodipodi:docname="full_logo.png"
   inkscape:version="0.92.4 (5da689c313, 2019-01-14)">
   <metadata id="metadata3755">
      <rdf:RDF>
         <cc:Work rdf:about="">
            <dc:format>image/svg+xml</dc:format>
            <dc:type rdf:resource="http://purl.org/dc/dcmitype/StillImage" />
            <dc:title></dc:title>
         </cc:Work>
      </rdf:RDF>
   </metadata>
   <defs id="defs3753" />
   <sodipodi:namedview pagecolor="#ffffff" bordercolor="#666666" borderopacity="1" objecttolerance="10"
      gridtolerance="10" guidetolerance="10" inkscape:pageopacity="0" inkscape:pageshadow="2"
      inkscape:window-width="1920" inkscape:window-height="1017" id="namedview3751" showgrid="false"
      inkscape:zoom="0.48889808" inkscape:cx="661.42189" inkscape:cy="667.78187" inkscape:window-x="-8"
      inkscape:window-y="-8" inkscape:window-maximized="1" inkscape:current-layer="svg3749" />
   <g id="g3759" transform="translate(4.0908361,1.5361525e-6)">
      <path style="fill:#cfcfcf;stroke-width:1.33333325"
         d="M 74.666665,775.33331 V 265.33333 H 679.99998 1285.3333 V 775.33331 1285.3333 H 679.99998 74.666665 Z M 85.333331,249.30302 c 4.766667,-1.36677 140.366659,-36.78424 301.333329,-78.70548 l 292.66666,-76.220414 8.66666,2.047708 C 697.75596,98.729918 1275.9221,250.47478 1278,251.27559 c 0.7333,0.28263 -269.2667,0.51356 -600.00002,0.51318 -588.896197,-6.8e-4 -601.154066,-0.0521 -592.666649,-2.48575 z"
         id="path3777" inkscape:connector-curvature="0" />
      <path style="fill:#a9a9a9;stroke-width:1.33333325"
         d="M 74.666665,775.33331 V 265.33333 H 679.99998 1285.3333 V 775.33331 1285.3333 H 679.99998 74.666665 Z m 6,-524.09632 C 81.399998,250.93313 216.62027,215.62278 381.15618,172.76956 L 680.31236,94.854586 977.15616,172.7958 c 163.26414,42.86766 297.44384,78.17801 298.17714,78.46743 0.7333,0.28943 -268.0667,0.52624 -597.33332,0.52624 -329.26666,0 -598.066649,-0.24862 -597.333315,-0.55248 z"
         id="path3775" inkscape:connector-curvature="0" />
      <path style="fill:#f2d70b;stroke-width:1.33333325"
         d="M 74.666665,1102.6666 V 919.99998 H 282.66666 490.66665 V 909.33331 898.66664 H 282.66666 74.666665 V 591.33332 283.99999 H 679.99998 1285.3333 V 591.33332 898.66664 H 1082.6666 879.99998 v 10.66667 10.66667 h 202.66662 202.6667 v 182.66662 182.6667 H 679.99998 74.666665 Z"
         id="path3773" inkscape:connector-curvature="0" />
      <path style="fill:#a5af32;stroke-width:1.33333325"
         d="m 74.973481,1257 0.35985,-28.3334 4.666667,-2.1611 c 2.566667,-1.1886 164.805512,-60.5886 360.530792,-132 L 796.3949,964.66664 644.19454,964.32766 491.99417,963.98868 284.58362,1029.9943 C 170.50782,1066.2974 76.609134,1096 75.919871,1096 c -0.769394,0 -1.253206,-33.9733 -1.253206,-88 V 919.99998 H 282.66666 490.66665 V 909.33331 898.66664 H 282.66666 74.666665 V 591.33332 283.99999 H 679.99998 1285.3333 V 591.33332 898.66664 H 1082.6666 879.99998 v 10.66667 10.66667 h 202.66662 202.6667 v 182.66662 182.6667 H 679.97346 74.613632 Z M 801.33331,805.33331 V 711.99998 H 683.99998 566.66665 v 93.33333 93.33333 H 683.99998 801.33331 Z M 215.99999,721.99998 v -72.66666 h -32.66666 -32.66667 v 72.66666 72.66667 h 32.66667 32.66666 z m 213.33333,0 v -72.66666 h -32.66666 -32.66667 v 72.66666 72.66667 h 32.66667 32.66666 z m 581.33328,0 v -72.66666 h -32.66662 -32.66667 v 72.66666 72.66667 h 32.66667 32.66662 z m 213.3334,0 v -72.66666 h -32.6667 -32.6667 v 72.66666 72.66667 H 1191.3333 1224 Z M 215.99999,440.66666 v -72.66667 h -32.66666 -32.66667 v 72.66667 72.66666 h 32.66667 32.66666 z m 213.33333,0 v -72.66667 h -32.66666 -32.66667 v 72.66667 72.66666 h 32.66667 32.66666 z m 284,0 v -72.66667 h -32.66667 -32.66667 v 72.66667 72.66666 h 32.66667 32.66667 z m 297.33328,0 v -72.66667 h -32.66662 -32.66667 v 72.66667 72.66666 h 32.66667 32.66662 z m 213.3334,0 v -72.66667 h -32.6667 -32.6667 v 72.66667 72.66666 H 1191.3333 1224 Z"
         id="path3771" inkscape:connector-curvature="0" />
      <path style="fill:#818181;stroke-width:1.33333325"
         d="m 74.666665,1257.4966 c 0,-20.7099 0.426706,-28.1587 1.666666,-29.0942 0.916667,-0.6916 163.477719,-60.3151 361.246789,-132.4966 l 359.58013,-131.23916 -153.04068,-0.3389 -153.04066,-0.33892 -207.4391,66.00558 C 169.5483,1066.2975 75.855546,1096 75.433685,1096 c -0.421861,0 -0.76702,-39.6 -0.76702,-88 V 919.99998 H 282.66666 490.66665 V 909.33331 898.66664 H 282.66666 74.666665 V 591.33332 283.99999 H 679.99998 1285.3333 V 591.33332 898.66664 H 1082.6666 879.99998 v 10.66667 10.66667 h 202.66662 202.6667 v 182.66662 182.6667 H 679.99998 74.666665 Z M 801.33331,805.33331 V 711.99998 H 683.99998 566.66665 v 93.33333 93.33333 H 683.99998 801.33331 Z M 215.99999,721.99998 v -72.66666 h -32.66666 -32.66667 v 72.66666 72.66667 h 32.66667 32.66666 z m 213.33333,0 v -72.66666 h -32.66666 -32.66667 v 72.66666 72.66667 h 32.66667 32.66666 z m 581.33328,0 v -72.66666 h -32.66662 -32.66667 v 72.66666 72.66667 h 32.66667 32.66662 z m 213.3334,0 v -72.66666 h -32.6667 -32.6667 v 72.66666 72.66667 H 1191.3333 1224 Z M 215.99999,440.66666 v -72.66667 h -32.66666 -32.66667 v 72.66667 72.66666 h 32.66667 32.66666 z m 213.33333,0 v -72.66667 h -32.66666 -32.66667 v 72.66667 72.66666 h 32.66667 32.66666 z m 284,0 v -72.66667 h -32.66667 -32.66667 v 72.66667 72.66666 h 32.66667 32.66667 z m 297.33328,0 v -72.66667 h -32.66662 -32.66667 v 72.66667 72.66666 h 32.66667 32.66662 z m 213.3334,0 v -72.66667 h -32.6667 -32.6667 v 72.66667 72.66666 H 1191.3333 1224 Z"
         id="path3769" inkscape:connector-curvature="0" />
      <path style="fill:#859e42;stroke-width:1.33333325"
         d="m 74.666665,1257.4966 c 0,-20.7101 0.426697,-28.1586 1.666666,-29.0939 0.916667,-0.6915 163.966659,-60.4786 362.333329,-132.8602 l 360.66665,-131.60302 40.33334,0.0303 40.33333,0.0302 v -22 -22 h 202.66662 202.6667 v 182.66662 182.6667 H 679.99998 74.666665 Z m 0,-249.3521 V 919.99998 H 282.6989 490.73113 l -0.36557,22.16902 -0.36557,22.16903 -204.66666,65.17127 c -112.56667,35.8442 -206.016665,65.5332 -207.666665,65.9755 l -3,0.8043 z m 0,-416.81118 V 283.99999 H 679.99998 1285.3333 v 307.33333 307.33332 h -230 -229.99999 v -93.33333 -93.33333 h 7.33334 7.33333 v -21.33333 -21.33333 h 20 20 V 646.66665 623.99998 H 685.33332 490.66665 v 22.66667 22.66667 h 20 20 v 20.66666 20.66667 h 6 6 v 94 93.99999 H 308.66666 74.666665 Z M 215.99999,721.99998 v -72.66666 h -32.66666 -32.66667 v 72.66666 72.66667 h 32.66667 32.66666 z m 213.33333,0 v -72.66666 h -32.66666 -32.66667 v 72.66666 72.66667 h 32.66667 32.66666 z m 581.33328,0 v -72.66666 h -32.66662 -32.66667 v 72.66666 72.66667 h 32.66667 32.66662 z m 213.3334,0 v -72.66666 h -32.6667 -32.6667 v 72.66666 72.66667 H 1191.3333 1224 Z M 215.99999,440.66666 v -72.66667 h -32.66666 -32.66667 v 72.66667 72.66666 h 32.66667 32.66666 z m 213.33333,0 v -72.66667 h -32.66666 -32.66667 v 72.66667 72.66666 h 32.66667 32.66666 z m 284,0 v -72.66667 h -32.66667 -32.66667 v 72.66667 72.66666 h 32.66667 32.66667 z m 297.33328,0 v -72.66667 h -32.66662 -32.66667 v 72.66667 72.66666 h 32.66667 32.66662 z m 213.3334,0 v -72.66667 h -32.6667 -32.6667 v 72.66667 72.66666 H 1191.3333 1224 Z"
         id="path3767" inkscape:connector-curvature="0" />
      <path style="fill:#648d52;stroke-width:1.33333325"
         d="m 74.666665,1257.5433 v -27.7901 l 4.333333,-2.2123 C 81.383331,1226.3241 244.4735,1166.5296 441.4226,1094.6643 L 799.51186,963.99998 h 40.24407 40.24405 v -22 -22 h 202.66662 202.6667 v 182.66662 182.6667 H 679.99998 74.666665 Z m 0,-249.3878 V 919.99998 H 282.66666 490.66665 v 21.95008 21.95008 l -26.99999,8.64836 c -38.58884,12.36037 -383.869249,122.2701 -386.666662,123.0838 -2.205538,0.6415 -2.333333,-4.1495 -2.333333,-87.4768 z m 0,-416.82218 V 283.99999 H 679.99998 1285.3333 v 307.33333 307.33332 h -230 -229.99999 v -93.33333 -93.33333 h 7.33334 7.33333 v -21.33333 -21.33333 h 20 20 V 646.66665 623.99998 H 685.33332 490.66665 v 22.66667 22.66667 h 20 20 v 20.66666 20.66667 h 6 6 v 94 93.99999 H 308.66666 74.666665 Z M 215.99999,721.99998 v -72.66666 h -32.66666 -32.66667 v 72.66666 72.66667 h 32.66667 32.66666 z m 213.33333,0 v -72.66666 h -32.66666 -32.66667 v 72.66666 72.66667 h 32.66667 32.66666 z m 581.33328,0 v -72.66666 h -32.66662 -32.66667 v 72.66666 72.66667 h 32.66667 32.66662 z m 213.3334,0 v -72.66666 h -32.6667 -32.6667 v 72.66666 72.66667 H 1191.3333 1224 Z M 215.99999,440.66666 v -72.66667 h -32.66666 -32.66667 v 72.66667 72.66666 h 32.66667 32.66666 z m 213.33333,0 v -72.66667 h -32.66666 -32.66667 v 72.66667 72.66666 h 32.66667 32.66666 z m 284,0 v -72.66667 h -32.66667 -32.66667 v 72.66667 72.66666 h 32.66667 32.66667 z m 297.33328,0 v -72.66667 h -32.66662 -32.66667 v 72.66667 72.66666 h 32.66667 32.66662 z m 213.3334,0 v -72.66667 h -32.6667 -32.6667 v 72.66667 72.66666 H 1191.3333 1224 Z"
         id="path3765" inkscape:connector-curvature="0" />
      <path style="fill:#276d71;stroke-width:1.33333325"
         d="m 74.666665,1257.5586 c 0,-27.4555 0.03448,-27.7925 3,-29.3238 1.65,-0.8521 164.892105,-60.6535 362.760235,-132.892 L 800.18713,963.99998 h 39.90642 39.90643 v -22 -22 h 202.66662 202.6667 v 182.66662 182.6667 H 679.99998 74.666665 Z m 0,-249.416 V 919.99998 H 282.66666 490.66665 v 21.94834 21.94835 l -6.33333,1.8972 c -8.05526,2.41301 -405.654155,128.95163 -407.954599,129.83443 -1.383212,0.5308 -1.712056,-16.273 -1.712056,-87.4857 z m 0,-416.80928 V 283.99999 H 679.99998 1285.3333 v 307.33333 307.33332 h -230 -229.99999 v -93.33333 -93.33333 h 7.33334 7.33333 v -21.33333 -21.33333 h 20 20 V 646.66665 623.99998 H 685.33332 490.66665 v 22.66667 22.66667 h 20 20 v 20.66666 20.66667 h 6 6 v 94 93.99999 H 308.66666 74.666665 Z M 215.99999,721.99998 v -72.66666 h -32.66666 -32.66667 v 72.66666 72.66667 h 32.66667 32.66666 z m 213.33333,0 v -72.66666 h -32.66666 -32.66667 v 72.66666 72.66667 h 32.66667 32.66666 z m 581.33328,0 v -72.66666 h -32.66662 -32.66667 v 72.66666 72.66667 h 32.66667 32.66662 z m 213.3334,0 v -72.66666 h -32.6667 -32.6667 v 72.66666 72.66667 H 1191.3333 1224 Z M 215.99999,440.66666 v -72.66667 h -32.66666 -32.66667 v 72.66667 72.66666 h 32.66667 32.66666 z m 213.33333,0 v -72.66667 h -32.66666 -32.66667 v 72.66667 72.66666 h 32.66667 32.66666 z m 284,0 v -72.66667 h -32.66667 -32.66667 v 72.66667 72.66666 h 32.66667 32.66667 z m 297.33328,0 v -72.66667 h -32.66662 -32.66667 v 72.66667 72.66666 h 32.66667 32.66662 z m 213.3334,0 v -72.66667 h -32.6667 -32.6667 v 72.66667 72.66666 H 1191.3333 1224 Z"
         id="path3763" inkscape:connector-curvature="0" />
      <path style="fill:#005885;stroke-width:1.33333325"
         d="m 74.666665,1257.6478 v -27.6854 l 5.153334,-2.2326 c 2.834335,-1.2279 166.262411,-61.0695 363.173501,-132.9812 L 801.01367,963.99998 h 39.49315 39.49316 v -22 -22 h 202.66662 202.6667 v 182.66662 182.6667 H 679.99998 74.666665 Z m 0,-250.3145 V 919.99998 H 282.66666 490.66665 v 21.73169 21.73169 L 284.33333,1029.085 c -113.48333,36.0918 -207.083332,65.6126 -207.999999,65.6016 -1.316166,-0.016 -1.666666,-18.3862 -1.666666,-87.3533 z m 0,-415.99998 V 283.99999 H 679.99998 1285.3333 v 307.33333 307.33332 h -230 -229.99999 v -93.33333 -93.33333 h 7.33334 7.33333 v -21.33333 -21.33333 h 20 20 V 646.66665 623.99998 H 685.33332 490.66665 v 22.66667 22.66667 h 20 20 v 20.66666 20.66667 h 6 6 v 94 93.99999 H 308.66666 74.666665 Z M 215.99999,721.99998 v -72.66666 h -32.66666 -32.66667 v 72.66666 72.66667 h 32.66667 32.66666 z m 213.33333,0 v -72.66666 h -32.66666 -32.66667 v 72.66666 72.66667 h 32.66667 32.66666 z m 581.33328,0 v -72.66666 h -32.66662 -32.66667 v 72.66666 72.66667 h 32.66667 32.66662 z m 213.3334,0 v -72.66666 h -32.6667 -32.6667 v 72.66666 72.66667 H 1191.3333 1224 Z M 215.99999,440.66666 v -72.66667 h -32.66666 -32.66667 v 72.66667 72.66666 h 32.66667 32.66666 z m 213.33333,0 v -72.66667 h -32.66666 -32.66667 v 72.66667 72.66666 h 32.66667 32.66666 z m 284,0 v -72.66667 h -32.66667 -32.66667 v 72.66667 72.66666 h 32.66667 32.66667 z m 297.33328,0 v -72.66667 h -32.66662 -32.66667 v 72.66667 72.66666 h 32.66667 32.66662 z m 213.3334,0 v -72.66667 h -32.6667 -32.6667 v 72.66667 72.66666 H 1191.3333 1224 Z"
         id="path3761" inkscape:connector-curvature="0" />
   </g>
</svg>